<svg width="200" height="200" viewBox="0 0 200 200" fill="none" xmlns="http://www.w3.org/2000/svg">
<path d="M104.924 1.01069C101.78 -0.336896 98.2204 -0.336896 95.076 1.01069L7.57601 38.5107C2.97996 40.4804 0 44.9997 0 50C0 55.0004 2.97996 59.5196 7.57601 61.4893L40.6297 75.6552C41.8316 74.2933 43.3383 73.1842 45.076 72.4394L95.076 51.0108C101.421 48.2914 108.77 51.2308 111.489 57.5762C114.209 63.9215 111.269 71.27 104.924 73.9895L70.8335 88.5997L95.076 98.9893C98.2204 100.337 101.78 100.337 104.924 98.9893L192.424 61.4893C197.02 59.5196 200 55.0004 200 50C200 44.9997 197.02 40.4804 192.424 38.5107L104.924 1.01069Z" fill="white" fill-opacity="0.75"/>
<path d="M16.3756 92.4591L37.5 101.512V152.783C33.2154 151.811 28.8382 151.084 24.3839 150.617C18.5117 150.001 13.8712 145.361 13.2555 139.489C12.7558 134.723 12.5 129.888 12.5 124.998C12.5 113.791 13.8426 102.894 16.3756 92.4591Z" fill="white" fill-opacity="0.75"/>
<path d="M91.2494 182.156C82.8385 173.911 73.1459 166.98 62.5 161.689V112.227L85.228 121.967C94.6611 126.01 105.339 126.01 114.772 121.967L183.624 92.4591C186.157 102.894 187.5 113.791 187.5 124.998C187.5 129.888 187.244 134.723 186.744 139.489C186.129 145.361 181.488 150.001 175.616 150.617C149.706 153.334 126.405 164.85 108.751 182.156C103.89 186.921 96.1101 186.921 91.2494 182.156Z" fill="white" fill-opacity="0.75"/>
<path d="M50 200C56.9036 200 62.5 194.403 62.5 187.5V161.689C54.642 157.783 46.2646 154.771 37.5 152.783V187.5C37.5 194.403 43.0964 200 50 200Z" fill="white" fill-opacity="0.75"/>
</svg>
