<svg width="300" height="250" viewBox="0 0 300 250" fill="none" xmlns="http://www.w3.org/2000/svg">
<path fill-rule="evenodd" clip-rule="evenodd" d="M13.4428 135.252C15.1001 138.291 18.2306 141.974 20.1872 145.219C21.4762 147.383 23.5939 150.306 25.1592 152.792C25.6886 153.621 26.2411 154.473 26.7705 155.255C27.8754 156.867 28.9112 158.685 29.9931 160.388L39.5918 175.788C40.1212 176.663 40.6967 177.491 41.2031 178.343C45.8298 185.962 50.8708 193.88 55.6357 201.407C56.7636 203.18 57.8224 204.676 58.9503 206.356L63.9684 213.883C64.4057 214.551 65.3034 215.679 65.5797 216.323C66.3163 216.185 70.7588 213.952 71.7947 213.446L89.7491 204.377C97.7365 200.326 105.724 196.205 114.195 192.775C127.384 187.458 144.05 182.417 159.012 184.535C162.488 185.018 166.677 185.916 169.969 187.09C170.728 187.366 172.616 188.218 173.191 188.287C171.695 186.906 170.406 185.41 168.979 184.005L166.907 181.796C165.687 180.622 163.915 178.665 162.764 177.376L159.656 174.061C158.759 173.049 157.769 171.76 156.71 170.678C155.099 169.066 153.326 166.696 151.669 165.038C151.301 164.647 151.047 164.256 150.725 163.841C150.38 163.404 150.035 163.151 149.689 162.759L124.461 133.756C124.254 133.572 124.139 133.434 123.955 133.204L118.891 127.587C118.476 127.15 118.223 126.897 117.832 126.505L113.642 122.224C112.791 121.188 112.031 120.705 111.479 120.106L109.292 118.011C108.9 117.643 108.67 117.367 108.279 116.976C106 114.697 101.903 111.727 98.2199 109.932C84.4318 103.164 70.2064 104.661 56.4643 110.208C51.9527 112.027 46.106 114.651 41.9857 117.091C41.111 117.62 40.1672 118.057 39.2235 118.61C37.382 119.692 35.7247 120.705 33.9523 121.786C32.1798 122.891 30.3614 123.927 28.681 125.078C27.2539 126.045 13.9492 134.677 13.3967 135.252H13.4428Z" fill="#FEFEFE" fill-opacity="0.44"/>
<path fill-rule="evenodd" clip-rule="evenodd" d="M108.97 115.018C109.223 115.364 109.798 115.847 110.12 116.169C110.512 116.538 110.834 116.929 111.225 117.297L115.806 121.74C116.266 122.177 116.451 122.361 116.888 122.891L121.353 127.471C121.791 127.909 121.952 128.231 122.366 128.691C123.149 129.589 123.747 130.188 124.599 131.016L126.164 132.835C126.74 133.64 128.098 134.906 128.834 135.804C129.18 136.242 129.479 136.587 129.87 137.001L146.628 156.314C146.973 156.728 147.295 157.073 147.664 157.511C148.791 158.846 149.551 159.882 150.817 161.148C151.047 161.378 151.162 161.539 151.347 161.769L156.042 167.178C156.411 167.593 156.756 168.03 157.124 168.444L160.324 171.943C160.692 172.335 161.014 172.818 161.36 173.232C161.981 173.992 163.892 175.787 164.651 176.639L167.943 180.138C168.311 180.552 168.633 180.92 169.002 181.312L171.165 183.706C171.902 184.534 172.639 185.064 173.421 185.915C173.628 186.146 173.813 186.261 174.066 186.445C175.148 187.297 177.265 189.852 178.14 190.22C179.245 187.02 179.199 187.158 180.925 184.258C182.168 182.163 185.161 179.171 187.301 177.514C188.13 176.869 188.913 176.317 189.856 175.695C205.762 165.337 232.487 161.378 251.523 158.754C254.976 158.27 281.309 154.933 282.092 154.426C281.792 153.943 280.434 153.068 279.859 152.654C276.107 150.099 272.148 146.945 268.28 144.321L263.631 141.006C262.088 139.855 260.477 138.843 258.958 137.715L244.963 127.909C241.763 125.814 238.725 123.512 235.525 121.395C233.96 120.359 232.349 119.231 230.806 118.149C229.287 117.067 227.676 116.054 226.134 114.949C224.522 113.799 223.003 112.786 221.415 111.681C219.85 110.599 218.284 109.471 216.696 108.435C212.898 105.926 208.732 102.842 204.957 100.333C202.586 98.7674 200.261 96.995 197.913 95.4067C194.921 93.4041 196.279 94.0256 191.974 94.6932C183.895 95.9362 177.334 95.798 169.14 95.8211C163.892 95.8441 158.643 95.8671 153.395 95.8901C150.84 95.8901 147.986 95.775 145.477 95.9362C137.236 96.4656 127.499 98.5833 120.663 102.888C119.788 103.44 119.052 103.947 118.315 104.522C116.082 106.225 116.036 106.271 114.034 108.205C112.699 109.494 109.269 113.706 108.9 114.926L108.97 115.018Z" fill="#FEFEFE" fill-opacity="0.44"/>
<path fill-rule="evenodd" clip-rule="evenodd" d="M76.3754 233.449L80.91 230.802C82.4522 229.904 83.9484 229.029 85.5597 228.154C88.6903 226.428 91.7747 224.633 95.0203 222.929C105.701 217.382 113.159 213.4 124.53 208.612C134.635 204.353 148.4 199.358 159.587 199.404C160.577 199.404 163.063 199.358 163.777 199.75C148.101 201.821 131.09 206.793 116.727 213.261C114.954 214.067 113.205 214.781 111.502 215.609L76.3754 233.426V233.449ZM65.6257 239.111L65.6948 237.891C66.5234 237.523 67.5823 236.786 68.3879 236.28C69.3317 235.704 70.1834 235.198 71.1271 234.646C76.5365 231.423 82.199 228.039 87.7235 225.001C104.757 215.609 129.548 202.489 148.953 198.967C151.531 198.507 154.178 198.161 156.894 198.092C158.943 198.046 160.991 198.138 163.017 198.53L164.375 198.806C164.951 199.013 164.605 198.852 164.766 199.082C164.375 199.381 164.651 199.082 164.605 199.381C160.508 198.253 153.004 199.312 148.907 200.141C129.41 204.054 105.54 216.691 87.8386 226.359C82.4292 229.328 76.5595 232.758 71.1962 235.958C69.4468 236.994 67.5132 238.306 65.6487 239.111H65.6257ZM65.7178 237.27L65.7638 235.981C66.8687 235.152 86.8718 223.873 87.9997 223.228C95.4577 218.993 103.031 214.988 110.857 211.006C118.476 207.139 126.809 203.363 135.441 200.509C142.3 198.253 150.403 196.412 157.884 196.803C161.912 197.01 162.188 197.333 165.618 197.908C165.457 198.391 165.319 198.23 165.135 198.599C161.014 197.01 153.833 197.586 149.321 198.368C133.07 201.246 113.78 210.522 99.1637 218.164C90.2785 222.814 79.8281 228.753 71.2422 233.978C70.5056 234.415 66.1551 237.155 65.6948 237.247L65.7178 237.27ZM65.7638 235.359V233.38L71.2653 230.226C90.4166 219.384 115.3 205.159 136.016 199.151C143.336 197.033 151.024 195.56 158.874 196.067C160.83 196.182 162.718 196.435 164.628 196.826C164.927 196.895 165.204 196.941 165.503 197.01L166.194 197.195C166.401 197.333 166.194 197.125 166.355 197.356L166.055 197.471C165.871 197.494 165.779 197.471 165.595 197.402C163.408 196.849 161.268 196.504 158.989 196.343C142.968 195.238 124.852 203.456 111.271 210.223C107.358 212.157 103.491 214.159 99.6931 216.231C97.7826 217.29 95.895 218.279 93.9615 219.338C85.3065 224.034 77.135 228.891 68.6642 233.679C67.8815 234.139 66.5695 235.014 65.7869 235.313L65.7638 235.359ZM65.8099 232.804L65.8329 231.423C66.017 230.917 85.9511 220.006 87.9997 218.97C91.8208 217.036 95.5267 214.965 99.4169 213.077C117.279 204.445 145.983 191.003 167.252 196.458C166.838 196.987 166.815 196.803 165.779 196.573C161.199 195.537 156.342 195.238 151.669 195.629C137.397 196.849 123.955 202.558 111.525 208.243C107.496 210.085 103.744 212.111 99.8082 214.021C96.7467 215.494 91.4064 218.418 88.322 220.121C81.5315 223.85 75.2935 227.441 68.6642 231.193C67.9506 231.607 66.5004 232.551 65.8099 232.804ZM65.8559 230.709L65.9019 229.282C68.8023 227.51 73.8203 224.702 76.9048 223.021C80.6108 221.019 84.3398 218.993 88.1608 216.967C106.299 207.438 131.39 195.952 152.359 194.501C155.168 194.294 158.022 194.294 160.807 194.478C162.142 194.57 163.431 194.709 164.766 194.916C165.388 195.008 165.986 195.1 166.585 195.215L167.943 195.491C168.564 195.675 168.196 195.514 168.357 195.744C167.69 195.859 168.449 196.228 166.815 195.859C165.066 195.445 162.879 195.123 161.083 194.985C144.763 193.581 126.118 200.233 111.893 206.632C103.79 210.292 95.9871 214.044 88.414 218.141L77.0889 224.31C76.0761 224.863 66.3393 230.502 65.7869 230.686L65.8559 230.709ZM65.925 228.753C65.8559 227.05 65.7408 227.441 67.8125 226.267C74.626 222.4 80.7259 219.062 87.7465 215.379C91.5445 213.377 95.5728 211.443 99.555 209.578C115.668 202.028 135.533 194.363 153.717 193.373C158.505 193.12 165.641 193.396 169.969 194.709C169.6 195.146 169.14 195.307 168.564 195.169C146.789 189.967 119.42 201.476 100.43 210.361C90.6468 214.942 78.2629 221.594 68.7793 227.096C68.2038 227.441 66.2933 228.431 65.971 228.753H65.925ZM66.017 226.75L65.994 225.231L77.227 218.97C88.9435 212.824 100.384 206.862 112.906 202.167C121.492 198.944 130.239 195.975 139.86 194.133C147.756 192.637 155.927 191.831 164.053 192.683C165.296 192.821 170.889 193.535 171.488 194.064C170.705 194.156 171.212 194.547 169.83 194.202C151.807 189.76 129.18 196.78 113.067 203.202C102.317 207.507 87.8386 214.55 77.3191 220.42C75.4086 221.479 73.498 222.538 71.6335 223.574C69.723 224.633 67.8815 225.737 66.0401 226.773L66.017 226.75ZM66.0401 224.679L66.017 223.436C66.6385 222.929 76.4905 217.52 77.3882 217.013C99.601 204.86 131.873 189.875 157.723 190.772C163.5 190.98 167.874 191.831 172.961 193.373L172.685 193.535C172.063 193.788 170.567 193.258 169.508 193.051C168.219 192.775 166.976 192.591 165.664 192.407C157.608 191.325 148.999 191.969 141.172 193.419C123.218 196.711 105.01 204.33 89.0585 212.272C82.4292 215.563 75.2935 219.361 68.8713 223.067C67.9506 223.597 66.9608 224.218 66.0401 224.679ZM66.0861 222.791V221.157C66.6155 220.65 76.8127 215.057 77.6414 214.62C102.133 201.499 140.413 183.222 168.035 190.358C169.715 190.795 173.582 192.015 174.71 192.798L174.595 192.844C173.79 193.166 173.79 193.166 173.122 192.936C163.915 189.69 152.405 189.806 143.014 191.279C132.863 192.867 123.586 195.744 114.655 199.059C98.9335 204.906 83.5111 212.916 68.9864 221.134C68.1578 221.617 66.8917 222.446 66.0631 222.768L66.0861 222.791ZM66.1551 220.466V218.164C67.0298 217.612 68.2728 217.152 69.2857 216.645C70.3675 216.116 71.3573 215.609 72.4392 215.126C74.5799 214.136 76.5365 213.077 78.6542 212.018L87.9076 207.254C92.166 205.044 99.3708 201.338 103.491 199.519L109.913 196.596C116.566 193.65 123.218 191.026 130.377 189.069C145.914 184.788 158.943 184.235 173.79 190.542C174.388 190.795 175.93 191.486 176.506 191.9L176.828 192.176C175.539 192.936 174.895 192.246 173.513 191.693C155.697 184.396 132.748 190.151 115.944 196.412C103.031 201.223 90.0023 207.346 78.0787 213.837L66.2012 220.443L66.1551 220.466ZM192.596 192.038C192.941 191.417 196.164 189.483 196.716 189.184C207.443 182.969 222.013 179.862 234.305 178.25C242.684 177.168 251.04 176.386 259.649 175.879C268.672 175.35 277.58 175.258 286.672 174.982C286.81 175.35 287.271 176.662 287.225 177.145C278.178 177.33 268.925 177.122 259.879 177.076C251.776 177.03 241.901 177.56 233.914 178.665C223.256 180.115 215.983 181.91 206.568 185.616C204.888 186.284 203.391 186.997 201.78 187.734C200.238 188.447 198.742 189.207 197.199 190.059L193.954 191.946C193.447 192.223 193.102 192.015 192.596 192.015V192.038ZM191.537 191.716C192.204 190.404 198.143 186.859 199.893 185.938C202.908 184.373 206.407 182.969 209.906 181.864C217.179 179.539 225.052 177.974 233.062 176.846C246.206 175.005 259.096 174.291 272.401 173.877C274.657 173.808 276.935 173.762 279.214 173.716C281.401 173.67 284.163 173.785 286.258 173.578L286.442 174.521C268.833 174.705 250.74 175.488 233.684 177.859C220.747 179.654 204.634 183.015 193.747 190.496C192.619 191.279 192.227 191.854 191.514 191.716H191.537ZM190.34 191.463L192.25 189.69C197.476 185.524 201.665 183.061 208.248 180.529C225.167 174.015 252.881 172.795 271.71 172.058C274.887 171.943 282.989 171.483 285.613 171.552C285.636 171.575 285.636 171.575 285.659 171.621C285.659 171.621 285.982 172.588 286.028 173.14C262.963 173.278 230.875 174.498 209.008 181.657C203.322 183.522 197.038 186.376 192.527 190.151C191.399 191.095 191.146 191.647 190.34 191.463ZM189.35 191.302C191.353 189.276 195.151 186.537 197.66 184.995C200.675 183.13 203.944 181.45 207.466 180.023C214.74 177.076 222.336 175.281 230.691 173.808C242.845 171.644 258.337 170.585 271.043 169.964C273.552 169.849 283.45 169.296 285.199 169.411C285.337 169.918 285.544 170.493 285.498 171.092C267.268 171.759 248.623 172.265 230.898 174.682C217.433 176.524 203.99 180 193.424 188.171C192.734 188.701 192.135 189.184 191.445 189.783L189.995 191.072C189.787 191.302 189.764 191.417 189.327 191.325L189.35 191.302ZM188.222 191.21C189.235 189.875 195.335 185.662 196.762 184.788C199.754 182.9 203.184 181.128 206.706 179.654C213.911 176.639 221.668 174.452 230.001 172.841C246.528 169.618 264.367 168.49 281.332 167.777C282.161 167.731 284.163 167.57 284.877 167.685C285.015 168.214 285.015 168.421 285.107 168.928C269.155 169.227 245.538 170.792 230.024 173.462C216.742 175.741 202.931 179.793 192.504 188.01L189.465 190.519C189.051 190.91 188.913 191.302 188.222 191.233V191.21ZM186.933 191.141C187.232 190.588 190.639 188.01 191.1 187.665C201.872 179.47 215.66 174.867 229.057 171.874C243.559 168.629 261.881 166.948 277.166 166.235C279.398 166.12 282.391 165.82 284.555 165.935C284.739 166.304 284.762 166.672 284.762 167.109C284.324 167.224 278.478 167.386 277.488 167.432C261.237 168.237 245.239 169.319 229.287 172.473C217.341 174.821 205.808 178.457 195.91 184.765C192.642 186.836 191.053 188.148 188.314 190.473C187.923 190.795 187.716 191.164 186.956 191.118L186.933 191.141ZM185.322 191.118C185.736 190.588 186.795 189.783 187.371 189.299C188.107 188.701 188.775 188.148 189.603 187.55C201.159 179.033 213.658 174.337 228.067 170.907C243.236 167.317 260.984 165.429 276.866 164.623L283.864 164.301C283.979 164.301 284.025 164.301 284.14 164.324C284.44 164.37 284.486 164.439 284.486 165.383C284.071 165.567 271.388 166.097 269.662 166.189C264.874 166.488 259.994 166.879 255.252 167.386C246.068 168.352 236.975 169.618 228.251 171.575C214.256 174.728 198.604 180.207 187.831 189.667C187.509 189.967 187.117 190.266 186.772 190.565C186.151 191.072 186.427 191.21 185.299 191.141L185.322 191.118ZM183.849 191.256C184.378 190.197 191.33 185.179 192.872 184.189C210.988 172.588 232.694 167.57 254.193 164.831C262.204 163.818 276.268 162.575 284.186 162.506C284.209 163.012 284.278 163.265 284.278 163.795C266.577 164.209 244.226 166.488 227.193 170.585C212.921 174.015 199.824 179.056 188.498 187.757C187.762 188.332 186.979 188.954 186.312 189.552C184.977 190.726 185.115 190.887 183.872 191.233L183.849 191.256ZM182.445 191.302C184.562 188.954 188.591 185.616 191.261 183.752C201.826 176.363 212.53 172.173 225.581 168.606C241.878 164.163 262.48 161.884 279.882 161.102C281.148 161.055 282.736 160.894 283.956 160.963C283.979 160.986 283.979 161.009 283.979 161.055C284.002 161.24 284.094 161.332 284.071 161.976C283.565 162.183 277.419 162.345 276.268 162.414C273.736 162.552 271.204 162.713 268.649 162.92C240.912 165.13 206.246 170.999 184.862 189.644L183.227 191.118C182.951 191.371 182.928 191.348 182.422 191.348L182.445 191.302ZM180.764 191.486C181.017 191.072 181.386 190.703 181.685 190.381C187.186 184.235 191.997 180.736 199.639 176.455C206.89 172.404 215.913 169.273 224.062 166.971C242.178 161.861 263.838 159.628 283.841 158.961C283.956 159.49 283.979 159.836 283.933 160.388C283.496 160.549 277.074 160.733 275.992 160.802C247.403 162.483 210.09 167.547 187.716 185.823C186.887 186.491 186.243 187.089 185.46 187.734C185.069 188.056 184.746 188.378 184.378 188.701C183.941 189.069 183.711 189.345 183.296 189.76C181.869 191.164 181.915 191.486 180.764 191.486ZM179.751 191.601C179.728 190.933 180.511 188.977 180.787 188.332C181.662 186.307 182.882 184.649 184.217 183.015L188.752 178.803C191.053 176.984 194.115 175.189 196.854 173.877C212.737 166.304 235.295 162.805 253.134 160.388C260.661 159.375 268.787 158.385 276.268 157.257C277.465 157.073 283.058 156.083 283.772 156.153L283.795 158.477C278.317 158.754 272.953 158.984 267.521 159.398C244.364 161.125 218.975 165.544 198.765 176.363C191.652 180.161 185.92 184.719 180.81 190.588C180.488 190.957 180.258 191.555 179.705 191.555L179.751 191.601ZM63.9684 235.82C63.9684 236.51 63.8763 237.293 63.8303 237.983C63.485 237.73 62.3111 235.774 61.9658 235.29C61.3213 234.392 60.7688 233.495 60.1473 232.551C54.0935 223.459 47.7864 214.32 42.0548 205.044C39.7299 201.269 37.29 197.747 34.9651 193.949C34.3666 192.982 33.7911 192.038 33.1927 191.164L29.6478 185.57C26.8856 181.013 23.64 176.225 20.8087 171.667L10.0591 155.117C9.43758 154.173 8.88514 153.252 8.26364 152.354C7.94138 151.917 6.53725 150.099 6.7214 149.638C7.06668 149.938 21.0849 171.115 21.3151 171.46C23.7781 175.166 26.149 178.734 28.612 182.417L61.3903 231.584C61.8047 232.206 63.9684 235.152 63.9914 235.797L63.9684 235.82ZM64.1065 241.781C65.0272 241.597 69.1706 239.364 70.2524 238.789L76.2603 235.658C77.227 235.175 78.1938 234.6 79.1836 234.116C80.1734 233.61 81.2092 233.057 82.153 232.528C84.0866 231.423 86.1812 230.502 88.1378 229.374C91.9589 227.142 96.1482 225.231 100.107 223.159C104.159 221.042 108.187 219.131 112.399 217.198C116.335 215.379 121.077 213.377 125.129 211.765C129.525 209.993 133.945 208.589 138.64 207.092C145.178 204.998 155.628 202.604 162.81 201.729C166.792 201.246 164.398 201.821 167.091 199.105C171.787 194.363 180.994 192.66 188.153 193.005C189.534 193.074 190.869 193.258 192.043 193.673C194.046 194.386 193.033 194.639 195.013 193.419C202.217 188.954 212.507 184.88 220.931 182.877C225.903 181.68 231.037 180.782 236.331 180.138C239.116 179.793 241.809 179.585 244.641 179.378C246.091 179.263 247.564 179.286 249.014 179.194C250.487 179.102 251.868 178.964 253.388 178.964C265.518 178.964 277.626 179.194 289.734 178.895C289.619 178.089 288.376 174.544 288.053 173.393C287.547 171.667 286.879 169.204 286.695 167.386C287.064 167.639 287.846 168.905 288.099 169.296C289.435 171.345 290.585 172.887 291.99 175.12C292.496 175.948 296.524 182.417 296.823 183.268C295.143 183.383 289.527 183.36 287.524 183.36C278.386 183.383 269.224 183.522 260.109 183.982C257.232 184.12 254.377 184.442 251.523 184.695C248.669 184.949 245.837 185.202 243.052 185.547C230.806 187.066 216.696 189.644 205.601 194.87C204.496 195.376 203.506 195.905 202.655 196.573C201.757 197.287 200.951 198 199.985 198.668C192.296 203.939 182.214 206.471 171.004 207.162C168.081 207.346 164.835 207.277 161.866 207.3C158.528 207.323 157.032 207.714 153.764 208.497C148.722 209.74 143.958 211.121 139.147 212.663C129.663 215.701 120.663 219.062 111.939 222.86C109.752 223.804 107.704 224.817 105.517 225.76C103.376 226.681 101.143 227.648 99.0946 228.661C96.9999 229.697 94.8362 230.571 92.7415 231.63C90.6698 232.689 88.4601 233.656 86.4114 234.738C85.3526 235.29 84.3628 235.751 83.3039 236.303C80.2885 237.891 76.8818 239.41 73.9124 240.999C71.8637 242.081 69.8151 243.024 67.6974 244.106C66.6385 244.636 65.6718 245.119 64.5899 245.671L61.3673 247.26L57.4081 241.229C54.6919 237.27 52.1139 233.034 49.4898 229.121L38.7862 212.318C33.2387 203.686 27.9444 194.639 22.4891 185.962C21.223 183.936 19.888 181.841 18.691 179.747C16.4122 175.764 13.5349 171.437 11.1179 167.294C10.4964 166.212 9.87493 165.314 9.25343 164.209C7.48101 161.055 5.36331 158.017 3.56787 154.84C2.80826 153.528 1.63431 152.424 2.14072 151.503C2.46298 150.927 4.12031 149.5 4.90294 149.224C4.99501 150.559 4.21238 149.845 6.12292 152.47C6.79046 153.367 7.41195 154.334 8.05647 155.301C9.32249 157.257 10.4964 159.283 11.8085 161.079C13.0054 162.736 14.2945 164.992 15.5375 166.856C17.402 169.618 19.2435 172.703 21.0849 175.488C24.1004 180.069 27.346 185.34 30.3384 190.036C31.5814 191.992 32.8014 193.857 34.0213 195.859C36.4383 199.819 38.9933 203.433 41.3872 207.438C42.0087 208.497 42.6302 209.302 43.2517 210.338C43.8502 211.351 44.5408 212.203 45.1393 213.215C47.4411 217.013 50.1803 221.019 52.6433 224.748C53.9093 226.658 55.1523 228.615 56.4413 230.479L64.1295 241.827L64.1065 241.781ZM6.9746 148.073L21.5453 169.296C22.7653 171.046 23.9853 172.795 25.1822 174.613C27.4611 178.043 30.1772 181.818 32.5021 185.271L43.4819 201.315C45.9679 204.906 48.2928 208.428 50.8018 211.972C53.2648 215.494 55.6587 219.108 58.1217 222.63C59.3647 224.402 60.5156 226.175 61.7586 227.924C62.3801 228.799 62.9326 229.674 63.5771 230.571C64.2676 231.561 64.1756 231.607 64.1065 233.472C64.1065 233.771 64.1065 234.277 63.9914 234.508C63.6691 234.208 57.247 224.471 56.8096 223.804L7.41195 149.684C6.99762 149.063 6.7214 148.971 6.99762 148.027L6.9746 148.073ZM7.27384 146.347L14.5017 156.705C16.8956 160.181 19.3125 163.68 21.7525 167.155C26.6094 174.107 31.3512 181.036 36.2081 187.987C42.2159 196.596 48.3388 205.32 54.2546 213.975C55.4515 215.724 56.6485 217.474 57.8915 219.2L63.3009 227.003C63.531 227.349 64.1065 228.016 64.1756 228.385C64.3137 229.098 64.0605 229.904 64.2216 230.548C63.8303 230.272 61.0911 226.129 60.5617 225.369C59.3417 223.597 58.1447 221.893 56.9708 220.121C54.8531 216.875 52.0218 212.916 49.789 209.625C47.5102 206.264 44.771 202.466 42.5842 199.128C40.2363 195.56 37.7273 192.2 35.4024 188.632C33.1466 185.202 30.5455 181.588 28.2207 178.135L8.44779 149.316C7.13573 147.406 6.99762 147.659 7.31988 146.37L7.27384 146.347ZM7.78025 144.137L8.03345 144.39C8.14855 144.528 8.17156 144.597 8.26364 144.735C8.40175 144.943 8.56288 145.173 8.70099 145.38C9.00023 145.84 9.27645 146.186 9.57569 146.646L22.0517 164.784C26.8626 171.644 31.4663 178.596 36.2541 185.455C41.065 192.361 45.6457 199.243 50.4796 206.126C52.8735 209.532 55.1523 213.008 57.5692 216.438C59.5949 219.338 61.7816 222.699 63.7842 225.484C64.4057 226.336 64.0144 226.313 64.1756 227.349C63.8533 227.142 50.2954 207.484 49.743 206.678C47.3951 203.225 45.0242 199.819 42.5842 196.343C37.7733 189.506 33.0085 182.486 28.2207 175.626C25.7807 172.15 23.3868 168.698 21.0159 165.245C16.8726 159.214 12.5681 153.206 8.47081 147.175C8.19458 146.761 7.80327 146.301 7.55007 145.863C7.3429 145.518 7.57308 144.597 7.78025 144.137ZM8.35571 141.927C8.88514 142.411 28.2897 170.999 29.5097 172.772L43.597 193.373C48.3619 200.187 52.9886 207.208 57.7304 214.044L63.8993 223.044C64.3597 223.712 64.0835 224.195 64.1986 225.093C63.7152 224.679 50.1343 204.745 49.8811 204.399C47.4871 200.97 45.1853 197.54 42.7914 194.087C38.0496 187.204 33.3538 180.23 28.5659 173.416C22.6042 164.923 16.7114 156.014 10.7496 147.498C10.1512 146.646 9.57569 145.794 8.97721 144.897C7.75723 143.147 7.80327 143.7 8.35571 141.927ZM9.23042 139.717C9.57569 139.948 27.6222 167.086 29.9701 170.562C32.2949 174.015 34.5508 177.399 36.8756 180.851C41.4793 187.734 46.037 194.547 50.6867 201.453L63.6461 220.765C64.0605 221.387 64.2446 221.502 64.1525 222.492C63.7842 222.147 61.0911 218.095 60.6077 217.382C57.224 212.272 53.495 207.069 50.0192 201.913C48.8452 200.187 47.6713 198.53 46.4974 196.78C45.3694 195.077 44.1725 193.327 42.9755 191.647C40.5816 188.194 38.2798 184.788 35.9088 181.312C31.2131 174.429 26.4943 167.616 21.8215 160.71C19.4736 157.257 17.1258 153.805 14.7549 150.375C14.4786 149.984 8.67797 141.582 8.63193 141.329C8.5859 141.006 9.02325 140.017 9.23042 139.717ZM10.4964 137.439C10.9798 137.945 57.8685 208.773 63.485 217.313C63.7152 217.658 64.2446 218.302 64.2906 218.625C64.4057 219.315 64.1295 220.052 64.2676 220.719C63.7842 220.374 44.6329 191.578 43.2978 189.575C40.9729 186.123 38.625 182.67 36.3232 179.171C34.0213 175.695 31.7195 172.265 29.3946 168.813L10.1972 140.178C9.89795 139.717 9.41456 139.303 9.62173 138.82C9.78286 138.451 10.2432 137.692 10.4964 137.439ZM10.8417 136.955C11.0949 136.587 11.3481 136.357 11.7624 136.242C12.5221 136.978 25.6886 157.05 26.7015 158.569L31.5353 166.166C32.341 167.432 33.0546 168.698 33.8602 169.964C34.6658 171.23 35.4485 172.542 36.2541 173.785C40.2363 179.977 44.1264 186.721 48.1547 192.982C48.546 193.604 48.9603 194.271 49.3516 194.893C49.6279 195.33 50.3875 196.435 50.5256 196.849C49.743 195.445 46.7506 191.21 45.5536 189.345C44.7479 188.079 43.9193 186.882 43.0676 185.616L15.7907 144.482C14.7779 142.94 11.5323 138.198 10.8417 136.955ZM13.3968 135.206C13.9492 134.63 27.2539 125.998 28.681 125.032C30.3614 123.881 32.1568 122.845 33.9523 121.74C35.7247 120.635 37.382 119.645 39.2235 118.563C40.1673 118.011 41.088 117.574 41.9857 117.044C46.106 114.604 51.9527 111.98 56.4644 110.162C70.2064 104.614 84.4318 103.118 98.2199 109.885C101.88 111.681 106 114.65 108.279 116.929C108.67 117.32 108.9 117.597 109.292 117.965L111.479 120.06C112.031 120.658 112.791 121.118 113.642 122.177L117.832 126.459C118.2 126.85 118.453 127.103 118.891 127.541L123.955 133.157C124.139 133.387 124.254 133.525 124.461 133.71L149.689 162.713C150.058 163.127 150.38 163.357 150.725 163.795C151.047 164.209 151.301 164.6 151.669 164.992C153.326 166.649 155.122 169.02 156.71 170.631C157.769 171.713 158.736 173.002 159.656 174.015L162.764 177.33C163.915 178.596 165.687 180.575 166.907 181.749L168.979 183.959C170.383 185.386 171.695 186.859 173.191 188.24C172.616 188.148 170.751 187.32 169.969 187.043C166.7 185.869 162.488 184.995 159.012 184.488C144.05 182.371 127.384 187.389 114.195 192.729C105.724 196.159 97.7135 200.279 89.7491 204.33L71.7947 213.4C70.7588 213.906 66.3163 216.139 65.5797 216.277C65.3035 215.632 64.4057 214.504 63.9684 213.837L58.9504 206.31C57.8455 204.63 56.7636 203.133 55.6357 201.361C50.8478 193.834 45.8298 185.892 41.2031 178.296C40.6967 177.445 40.1212 176.616 39.5918 175.741L29.9931 160.342C28.8882 158.662 27.8754 156.843 26.7705 155.209C26.2411 154.426 25.6886 153.574 25.1592 152.746C23.594 150.283 21.4763 147.336 20.1872 145.173C18.2306 141.927 15.1001 138.244 13.4428 135.206H13.3968ZM108.947 114.995C109.315 113.799 112.745 109.563 114.08 108.274C116.082 106.341 116.128 106.294 118.361 104.591C119.098 104.016 119.857 103.509 120.709 102.957C127.545 98.6293 137.282 96.5346 145.523 96.0052C148.032 95.8441 150.909 95.9592 153.441 95.9592C158.689 95.9362 163.938 95.9131 169.186 95.8901C177.381 95.8441 183.941 96.0052 192.02 94.7622C196.325 94.0947 194.967 93.4502 197.959 95.4758C200.307 97.0641 202.632 98.8135 205.003 100.402C208.778 102.911 212.921 105.995 216.742 108.504C218.33 109.54 219.896 110.668 221.461 111.75C223.049 112.832 224.568 113.868 226.18 115.018C227.722 116.1 229.333 117.136 230.852 118.218C232.395 119.3 233.983 120.451 235.571 121.464C238.771 123.581 241.809 125.883 245.009 127.978L259.004 137.784C260.523 138.912 262.135 139.925 263.677 141.075L268.327 144.39C272.194 147.037 276.153 150.168 279.905 152.723C280.503 153.114 281.838 154.012 282.138 154.495C281.355 155.002 255.022 158.339 251.569 158.823C232.51 161.447 205.785 165.429 189.903 175.764C188.959 176.386 188.176 176.938 187.348 177.583C185.207 179.24 182.214 182.233 180.971 184.327C179.268 187.228 179.291 187.089 178.186 190.289C177.311 189.921 175.194 187.366 174.112 186.514C173.859 186.33 173.698 186.215 173.467 185.985C172.685 185.11 171.948 184.58 171.212 183.775L169.048 181.381C168.656 180.966 168.357 180.621 167.989 180.207L164.697 176.708C163.915 175.856 162.027 174.061 161.406 173.301C161.06 172.887 160.715 172.404 160.37 172.012L157.17 168.513C156.825 168.099 156.457 167.662 156.088 167.247L151.393 161.838C151.185 161.608 151.07 161.424 150.863 161.217C149.597 159.928 148.815 158.915 147.71 157.58C147.341 157.142 147.042 156.797 146.674 156.383L129.916 137.07C129.525 136.656 129.226 136.288 128.881 135.873C128.144 134.976 126.786 133.71 126.21 132.904L124.645 131.085C123.77 130.257 123.195 129.681 122.412 128.761C121.998 128.277 121.837 127.978 121.4 127.541L116.934 122.96C116.497 122.43 116.312 122.223 115.852 121.809L111.271 117.366C110.88 116.998 110.558 116.607 110.167 116.238C109.821 115.916 109.246 115.433 109.016 115.088L108.947 114.995ZM0 151.595V152.401C0.621499 153.229 1.21998 154.426 1.84148 155.439L6.42216 163.104C6.74442 163.657 7.02064 164.163 7.36592 164.692C9.18438 167.432 11.0259 170.999 12.9364 173.877C13.9032 175.327 15.6526 178.388 16.6194 180C17.2178 180.99 17.8624 182.117 18.4838 183.084L19.911 185.34C20.0721 185.593 20.2333 185.869 20.3944 186.123C20.7166 186.652 21.0159 187.181 21.3151 187.642C22.5811 189.552 23.7781 191.716 25.0671 193.696C26.5633 195.952 28.3127 199.036 29.8089 201.384C31.6734 204.284 33.584 207.576 35.4485 210.522C36.116 211.558 36.7605 212.64 37.336 213.584L44.0114 224.126C44.1725 224.402 44.3336 224.633 44.5178 224.886L47.8554 230.111C48.1777 230.617 48.523 231.17 48.8452 231.653C50.5026 234.116 52.4591 237.454 54.1625 239.848L58.6281 246.569C58.8122 246.822 58.9273 247.03 59.0885 247.26L60.6537 249.516H60.9299L89.4268 235.267C92.3732 233.886 96.3094 231.86 99.0716 230.64L108.877 226.152C109.476 225.899 109.936 225.691 110.489 225.438C111.11 225.162 111.594 224.978 112.192 224.702C114.448 223.712 116.589 222.883 118.844 221.916C121.975 220.604 125.865 219.154 129.134 217.911C134.336 215.909 141.679 213.538 147.088 212.064C149.574 211.397 152.083 210.729 154.661 210.108C162.994 208.105 160.301 209.44 167.506 209.049C175.792 208.589 183.964 207.875 191.767 204.837C194.759 203.686 198.65 201.821 201.159 199.934L203.829 197.839C204.335 197.517 204.842 197.241 205.325 196.987C212.668 193.212 220.839 191.256 228.919 189.575C237.459 187.826 245.469 186.997 254.124 186.192C257.048 185.915 260.178 185.846 263.009 185.57C266.991 185.179 277.603 185.018 281.539 185.018C284.486 185.018 287.938 184.811 290.793 184.926L300 185.018V184.742C299.609 184.281 293.992 174.751 293.071 173.301C292.68 172.703 292.243 172.058 291.874 171.483C290.908 169.964 287.984 165.636 286.856 164.255C286.074 163.288 286.143 163.472 286.005 161.999C285.844 160.089 285.798 158.178 285.613 156.268C285.498 155.094 285.729 154.564 284.877 154.012L258.152 134.768C257.508 134.262 257.024 133.986 256.288 133.502C255.597 133.042 255.114 132.651 254.469 132.213L243.628 124.686C242.27 123.743 241.441 123.236 240.014 122.177C239.438 121.74 238.794 121.395 238.218 120.957L236.4 119.668C235.18 118.909 233.96 117.942 232.763 117.182L223.694 110.898C222.036 109.701 220.103 108.527 218.215 107.146C215.568 105.213 211.77 102.888 209.169 100.954C207.42 99.6421 205.417 98.3991 203.737 97.1331C202.793 96.4196 196.854 92.5064 196.532 92H196.025C194.875 92.6445 185.989 93.5653 183.872 93.6804C182.813 93.7264 181.593 93.7264 180.557 93.8185C179.498 93.9105 178.278 93.7954 177.242 93.8875C175.493 94.0486 172.201 93.9566 170.475 93.8415C168.357 93.7034 165.756 93.8415 163.569 93.8415C156.756 93.8415 150.035 93.7494 143.359 94.3018C134.773 94.9924 124.783 97.5244 118.384 102.22L113.642 106.041C113.044 106.64 112.491 107.192 111.893 107.791C111.548 108.136 111.433 108.389 111.11 108.757L109.591 110.645C108.601 111.888 108.026 112.924 107.496 113.614L104.412 111.451C103.882 111.105 103.376 110.737 102.847 110.392C102.317 110.047 101.88 109.747 101.304 109.402C92.9717 104.545 83.3269 102.727 73.7512 103.762C67.3291 104.453 61.2292 106.318 55.2674 108.619C54.0014 109.103 52.8505 109.655 51.6305 110.162L44.6329 113.453C40.6046 115.64 36.1621 118.126 32.2949 120.543L25.2052 125.124C24.1234 125.814 23.1106 126.413 22.0978 127.149C21.6144 127.518 20.9929 127.863 20.5095 128.162C19.9801 128.484 19.4736 128.83 18.9903 129.175C18.4608 129.566 18.0235 129.796 17.402 130.211C16.8726 130.579 16.3892 130.878 15.8367 131.27C15.5835 131.454 15.2613 131.638 15.0081 131.799C14.7318 131.983 14.5477 132.144 14.2715 132.328L11.141 134.354C10.1051 134.929 9.18438 135.896 8.56288 136.909C7.13573 139.211 6.30707 141.766 5.75462 144.482C5.66255 144.943 5.50142 146.255 5.31727 146.577C5.11011 146.968 3.29164 147.544 2.18676 148.602C-0.230185 150.904 0.828666 150.306 0.0230185 151.526L0 151.595Z" fill="#120078"/>
<path fill-rule="evenodd" clip-rule="evenodd" d="M56.4414 230.456C55.1754 228.592 53.9324 226.635 52.6433 224.725C50.1573 220.973 47.4412 216.968 45.1393 213.193C44.5178 212.18 43.8503 211.328 43.2518 210.315C42.6303 209.279 42.0088 208.474 41.3873 207.415C38.9934 203.41 36.4383 199.796 34.0214 195.837C32.7784 193.834 31.5814 191.97 30.3384 190.013C27.346 185.317 24.1004 180.023 21.085 175.465C19.2435 172.657 17.402 169.596 15.5375 166.833C14.2945 164.969 13.0055 162.713 11.8085 161.056C10.5195 159.26 9.32254 157.235 8.05652 155.278C7.43502 154.311 6.7905 153.344 6.12297 152.447C4.21243 149.823 4.99506 150.536 4.90299 149.201C4.12036 149.477 2.46303 150.905 2.14077 151.48C1.63436 152.401 2.8083 153.506 3.56791 154.818C5.36336 157.994 7.48106 161.033 9.25348 164.186C9.87498 165.291 10.4735 166.212 11.118 167.271C13.5349 171.414 16.3892 175.741 18.6911 179.724C19.888 181.818 21.2001 183.913 22.4891 185.939C27.9445 194.617 33.2388 203.663 38.7862 212.295L49.4898 229.098C52.1139 233.011 54.692 237.224 57.4082 241.206L61.3674 247.237L64.5899 245.649C65.6718 245.119 66.6386 244.636 67.6974 244.083C69.8151 243.001 71.8638 242.058 73.9124 240.976C76.8818 239.411 80.2886 237.868 83.304 236.28C84.3628 235.728 85.3526 235.267 86.4115 234.715C88.4601 233.633 90.6699 232.666 92.7416 231.607C94.8362 230.548 97 229.674 99.0947 228.638C101.143 227.602 103.376 226.658 105.517 225.738C107.704 224.794 109.775 223.781 111.939 222.837C120.663 219.039 129.663 215.679 139.147 212.64C143.958 211.098 148.7 209.717 153.764 208.474C157.032 207.668 158.551 207.277 161.866 207.277C164.835 207.254 168.104 207.323 171.004 207.139C182.214 206.448 192.274 203.916 199.985 198.645C200.952 197.977 201.757 197.264 202.655 196.55C203.53 195.86 204.519 195.353 205.601 194.847C216.719 189.622 230.806 187.044 243.052 185.524C245.838 185.179 248.669 184.926 251.523 184.673C254.377 184.419 257.232 184.097 260.109 183.959C269.224 183.476 278.386 183.361 287.524 183.338C289.527 183.338 295.143 183.361 296.824 183.246C296.524 182.417 292.519 175.926 291.99 175.097C290.586 172.841 289.435 171.322 288.1 169.273C287.846 168.882 287.064 167.616 286.695 167.363C286.88 169.181 287.547 171.644 288.053 173.371C288.399 174.521 289.642 178.043 289.734 178.872C277.626 179.194 265.495 178.941 253.388 178.941C251.845 178.941 250.487 179.079 249.014 179.171C247.564 179.263 246.091 179.263 244.641 179.355C241.809 179.563 239.116 179.77 236.331 180.115C231.037 180.783 225.904 181.657 220.932 182.854C212.53 184.857 202.218 188.931 195.013 193.397C193.033 194.617 194.046 194.386 192.043 193.65C190.869 193.236 189.534 193.051 188.153 192.982C180.971 192.637 171.787 194.34 167.091 199.082C164.398 201.798 166.769 201.223 162.81 201.706C155.628 202.581 145.201 204.975 138.64 207.07C133.945 208.566 129.525 209.993 125.129 211.742C121.054 213.377 116.336 215.356 112.399 217.175C108.187 219.131 104.136 221.042 100.107 223.137C96.1713 225.185 91.9589 227.119 88.1379 229.352C86.2043 230.479 84.0866 231.423 82.1531 232.505C81.2093 233.034 80.1735 233.587 79.1837 234.093C78.1939 234.6 77.2271 235.152 76.2603 235.636L70.2525 238.766C69.1706 239.342 65.0273 241.574 64.1066 241.758L56.4184 230.41L56.4414 230.456Z" fill="#FEFEFE" fill-opacity="0.44"/>
<path fill-rule="evenodd" clip-rule="evenodd" d="M78.0557 213.86C89.9793 207.369 103.008 201.246 115.921 196.435C132.748 190.174 155.674 184.42 173.49 191.716C174.895 192.292 175.516 192.959 176.805 192.2L176.483 191.924C175.884 191.509 174.365 190.819 173.767 190.565C158.92 184.281 145.868 184.811 130.354 189.092C123.218 191.072 116.543 193.673 109.89 196.619L103.468 199.543C99.3478 201.361 92.143 205.067 87.8846 207.277L78.6312 212.042C76.4905 213.101 74.5569 214.159 72.4162 215.149C71.3573 215.633 70.3445 216.139 69.2627 216.668C68.2729 217.175 67.0068 217.635 66.1321 218.188V220.49L78.0097 213.883L78.0557 213.86Z" fill="#FEFEFE" fill-opacity="0.44"/>
<path fill-rule="evenodd" clip-rule="evenodd" d="M179.774 191.601C180.327 191.578 180.557 190.98 180.879 190.634C185.966 184.765 191.698 180.207 198.834 176.409C219.044 165.59 244.433 161.171 267.59 159.444C273.022 159.03 278.386 158.823 283.864 158.524L283.841 156.199C283.127 156.13 277.534 157.119 276.337 157.304C268.879 158.409 260.73 159.398 253.203 160.434C235.364 162.851 212.783 166.35 196.923 173.923C194.184 175.235 191.122 177.007 188.821 178.849L184.286 183.061C182.951 184.673 181.708 186.33 180.856 188.379C180.58 189.023 179.797 190.98 179.82 191.647L179.774 191.601Z" fill="#FEFEFE" fill-opacity="0.44"/>
<path fill-rule="evenodd" clip-rule="evenodd" d="M66.1091 222.791C66.9378 222.446 68.1808 221.617 69.0325 221.157C83.5341 212.939 98.9565 204.929 114.701 199.082C123.609 195.767 132.886 192.89 143.06 191.302C152.475 189.828 163.984 189.713 173.168 192.959C173.836 193.189 173.836 193.189 174.641 192.867L174.756 192.821C173.606 192.038 169.761 190.818 168.081 190.381C140.482 183.268 102.179 201.545 77.6874 214.642C76.8588 215.08 66.6616 220.673 66.1321 221.18V222.814L66.1091 222.791Z" fill="#FEFEFE" fill-opacity="0.44"/>
<path fill-rule="evenodd" clip-rule="evenodd" d="M10.5194 137.461C10.2662 137.714 9.78282 138.474 9.64471 138.842C9.43754 139.348 9.89791 139.74 10.2202 140.2L29.4176 168.835C31.7425 172.288 34.0443 175.717 36.3462 179.193C38.671 182.692 41.0189 186.168 43.3208 189.598C44.6558 191.577 63.8072 220.396 64.2906 220.742C64.1525 220.074 64.4287 219.337 64.3136 218.647C64.2676 218.325 63.7152 217.657 63.508 217.335C57.8915 208.795 11.0028 137.944 10.5194 137.461Z" fill="#FEFEFE" fill-opacity="0.44"/>
<path fill-rule="evenodd" clip-rule="evenodd" d="M180.81 191.509C181.961 191.532 181.915 191.187 183.342 189.783C183.78 189.369 183.987 189.115 184.424 188.724C184.793 188.402 185.115 188.08 185.506 187.757C186.289 187.113 186.933 186.514 187.762 185.847C210.159 167.593 247.449 162.529 276.038 160.826C277.12 160.757 283.565 160.572 283.979 160.411C284.025 159.859 284.002 159.514 283.887 158.984C263.884 159.652 242.247 161.884 224.108 166.995C215.937 169.296 206.936 172.404 199.686 176.478C192.043 180.76 187.233 184.235 181.731 190.404C181.432 190.727 181.087 191.095 180.81 191.509Z" fill="#FEFEFE" fill-opacity="0.44"/>
<path fill-rule="evenodd" clip-rule="evenodd" d="M66.0631 224.679C66.9838 224.218 67.9736 223.597 68.8943 223.067C75.3165 219.361 82.4522 215.563 89.0816 212.272C105.033 204.353 123.264 196.711 141.195 193.42C149.022 191.992 157.631 191.348 165.687 192.407C166.999 192.591 168.219 192.775 169.531 193.051C170.613 193.281 172.086 193.811 172.708 193.535L172.984 193.373C167.92 191.831 163.523 190.98 157.746 190.772C131.896 189.875 99.624 204.86 77.4112 217.013C76.5135 217.497 66.6615 222.906 66.04 223.436L66.0631 224.679Z" fill="#FEFEFE" fill-opacity="0.44"/>
<path fill-rule="evenodd" clip-rule="evenodd" d="M190.363 191.463C191.168 191.647 191.422 191.095 192.55 190.151C197.084 186.376 203.368 183.522 209.031 181.657C230.898 174.499 262.986 173.279 286.051 173.141C286.005 172.565 285.682 171.621 285.682 171.621C285.682 171.575 285.659 171.575 285.636 171.552C283.012 171.483 274.933 171.921 271.733 172.059C252.881 172.795 225.19 174.015 208.271 180.529C201.665 183.062 197.476 185.524 192.273 189.691L190.363 191.463Z" fill="#FEFEFE" fill-opacity="0.44"/>
<path fill-rule="evenodd" clip-rule="evenodd" d="M65.6487 239.111C67.5132 238.306 69.4467 236.994 71.1961 235.958C76.5595 232.781 82.4292 229.328 87.8385 226.359C105.54 216.691 129.41 204.054 148.907 200.141C153.004 199.312 160.508 198.277 164.605 199.381C164.651 199.082 164.375 199.381 164.766 199.082C164.582 198.852 164.95 198.99 164.375 198.806L163.017 198.53C161.014 198.138 158.943 198.046 156.894 198.092C154.178 198.138 151.554 198.484 148.953 198.967C129.548 202.489 104.757 215.609 87.7234 225.001C82.199 228.039 76.5364 231.423 71.1271 234.646C70.1833 235.198 69.3316 235.705 68.3879 236.28C67.5822 236.763 66.5234 237.5 65.6947 237.891L65.6257 239.111H65.6487Z" fill="#FEFEFE" fill-opacity="0.44"/>
<path fill-rule="evenodd" clip-rule="evenodd" d="M43.4819 201.315L32.5021 185.271C30.1772 181.818 27.4611 178.043 25.1822 174.613C23.9853 172.795 22.7653 171.045 21.5453 169.296L6.9746 148.073C6.69838 149.017 6.95158 149.086 7.38893 149.73L56.7866 223.85C57.224 224.517 63.6231 234.254 63.9684 234.553C64.0835 234.3 64.0605 233.817 64.0835 233.518C64.1525 231.676 64.2446 231.63 63.554 230.617C62.9325 229.697 62.3571 228.845 61.7356 227.97C60.4926 226.198 59.3417 224.448 58.0987 222.676C55.6357 219.131 53.2648 215.54 50.7788 212.018C48.2928 208.45 45.9679 204.929 43.4589 201.361L43.4819 201.315Z" fill="#FEFEFE" fill-opacity="0.44"/>
<path fill-rule="evenodd" clip-rule="evenodd" d="M65.7408 237.293C66.1782 237.201 70.5517 234.462 71.2883 234.025C79.8742 228.8 90.3246 222.884 99.2097 218.211C113.826 210.569 133.116 201.292 149.367 198.415C153.879 197.609 161.083 197.057 165.181 198.645C165.365 198.277 165.503 198.438 165.664 197.955C162.211 197.379 161.935 197.057 157.93 196.85C150.449 196.459 142.323 198.3 135.487 200.556C126.855 203.41 118.522 207.185 110.903 211.052C103.077 215.034 95.5038 219.04 88.0458 223.275C86.9409 223.92 66.9378 235.199 65.8099 236.027L65.7639 237.316L65.7408 237.293Z" fill="#FEFEFE" fill-opacity="0.44"/>
<path fill-rule="evenodd" clip-rule="evenodd" d="M65.7869 235.359C66.5925 235.06 67.8816 234.185 68.6642 233.725C77.135 228.914 85.3066 224.057 93.9615 219.384C95.8951 218.325 97.7826 217.313 99.6931 216.277C103.491 214.205 107.381 212.226 111.271 210.269C124.852 203.525 142.968 195.284 158.989 196.389C161.268 196.55 163.408 196.895 165.595 197.448C165.802 197.494 165.871 197.54 166.055 197.517L166.355 197.402C166.194 197.148 166.378 197.356 166.194 197.241L165.503 197.056C165.181 196.987 164.928 196.918 164.628 196.872C162.718 196.481 160.83 196.228 158.874 196.113C151.024 195.606 143.336 197.079 136.016 199.197C115.3 205.205 90.4167 219.453 71.2653 230.272L65.7639 233.426V235.405L65.7869 235.359Z" fill="#FEFEFE" fill-opacity="0.44"/>
<path fill-rule="evenodd" clip-rule="evenodd" d="M182.468 191.301C182.951 191.324 182.997 191.324 183.273 191.071L184.908 189.597C206.292 170.952 240.958 165.083 268.695 162.873C271.227 162.666 273.782 162.505 276.314 162.367C277.465 162.297 283.611 162.136 284.117 161.929C284.14 161.262 284.025 161.193 284.025 161.008C284.025 160.962 284.002 160.962 284.002 160.916C282.759 160.847 281.171 161.008 279.928 161.054C262.549 161.837 241.947 164.093 225.627 168.559C212.576 172.126 201.872 176.339 191.307 183.705C188.637 185.569 184.608 188.93 182.491 191.255L182.468 191.301Z" fill="#FEFEFE" fill-opacity="0.44"/>
<path fill-rule="evenodd" clip-rule="evenodd" d="M28.5889 173.44C33.3768 180.253 38.0725 187.228 42.8143 194.11C45.2083 197.563 47.4871 200.993 49.904 204.422C50.1572 204.768 63.7151 224.702 64.2215 225.116C64.1065 224.218 64.3827 223.735 63.9223 223.067L57.7533 214.067C53.0115 207.254 48.3848 200.233 43.62 193.397L29.5327 172.795C28.3127 171.046 8.90812 142.434 8.37869 141.95C7.82625 143.723 7.78021 143.193 9.00019 144.92C9.62169 145.794 10.1741 146.646 10.7726 147.521C16.7574 156.038 22.6271 164.946 28.5889 173.44Z" fill="#FEFEFE" fill-opacity="0.44"/>
<path fill-rule="evenodd" clip-rule="evenodd" d="M63.8532 238.006C63.8763 237.316 63.9914 236.533 63.9914 235.843C63.9914 235.198 61.8276 232.252 61.3903 231.63L28.6119 182.463C26.149 178.78 23.7781 175.189 21.3151 171.506C21.0849 171.138 7.06663 149.961 6.72135 149.684C6.5372 150.145 7.94133 151.963 8.26359 152.401C8.90811 153.298 9.43753 154.219 10.059 155.163L20.8087 171.713C23.6399 176.271 26.8855 181.059 29.6478 185.616L33.1926 191.21C33.7911 192.107 34.3666 193.028 34.965 193.995C37.2899 197.793 39.7068 201.315 42.0547 205.09C47.7863 214.366 54.0934 223.505 60.1473 232.597C60.7688 233.541 61.3442 234.438 61.9657 235.336C62.311 235.82 63.508 237.776 63.8302 238.029L63.8532 238.006Z" fill="#FEFEFE" fill-opacity="0.44"/>
<path fill-rule="evenodd" clip-rule="evenodd" d="M57.8685 219.2C56.6255 217.474 55.4285 215.724 54.2316 213.975C48.3158 205.32 42.1929 196.596 36.1851 187.987C31.3282 181.035 26.5864 174.107 21.7295 167.155C19.3125 163.679 16.8956 160.204 14.4786 156.705L7.25084 146.346C6.92858 147.635 7.06669 147.382 8.37875 149.293L28.1516 178.112C30.4765 181.565 33.1006 185.179 35.3334 188.608C37.6583 192.176 40.1903 195.537 42.5152 199.105C44.7019 202.442 47.4411 206.241 49.72 209.601C51.9528 212.916 54.784 216.852 56.9017 220.098C58.0757 221.893 59.2726 223.573 60.4926 225.346C61.022 226.105 63.7612 230.249 64.1526 230.525C63.9914 229.858 64.2446 229.052 64.1065 228.361C64.0375 227.993 63.485 227.325 63.2318 226.98L57.8225 219.177L57.8685 219.2Z" fill="#FEFEFE" fill-opacity="0.44"/>
<path fill-rule="evenodd" clip-rule="evenodd" d="M111.502 215.631C113.205 214.78 114.954 214.066 116.727 213.284C131.09 206.838 148.101 201.843 163.777 199.772C163.063 199.38 160.577 199.426 159.587 199.426C148.4 199.403 134.635 204.398 124.53 208.634C113.159 213.422 105.701 217.404 95.0203 222.951C91.7747 224.632 88.6903 226.45 85.5597 228.177C83.9484 229.051 82.4753 229.926 80.91 230.824L76.3754 233.471L111.502 215.655V215.631Z" fill="#FEFEFE" fill-opacity="0.44"/>
<path fill-rule="evenodd" clip-rule="evenodd" d="M66.0401 226.773C67.8815 225.738 69.746 224.656 71.6335 223.574C73.498 222.538 75.4086 221.479 77.3191 220.42C87.8386 214.551 102.34 207.507 113.067 203.202C129.18 196.757 151.807 189.76 169.83 194.202C171.212 194.548 170.728 194.156 171.488 194.064C170.889 193.558 165.296 192.821 164.053 192.683C155.927 191.831 147.756 192.637 139.86 194.133C130.239 195.975 121.515 198.944 112.906 202.167C100.384 206.839 88.9435 212.801 77.227 218.97L65.994 225.231L66.017 226.75L66.0401 226.773Z" fill="#FEFEFE" fill-opacity="0.44"/>
<path fill-rule="evenodd" clip-rule="evenodd" d="M46.5204 196.826C47.6713 198.576 48.8683 200.233 50.0422 201.959C53.518 207.116 57.224 212.318 60.6307 217.428C61.1141 218.141 63.8073 222.193 64.1756 222.538C64.2676 221.548 64.0835 221.433 63.6692 220.812L50.7098 201.499C46.06 194.617 41.5024 187.78 36.8987 180.897C34.5738 177.445 32.318 174.061 29.9931 170.608C27.6452 167.132 9.59874 139.994 9.25346 139.763C9.0463 140.063 8.60894 141.052 8.65498 141.375C8.70102 141.628 14.5247 150.053 14.7779 150.421C17.1718 153.828 19.4967 157.281 21.8446 160.756C26.5173 167.662 31.2361 174.475 35.9319 181.358C38.3028 184.834 40.6046 188.24 42.9986 191.693C44.1725 193.397 45.3925 195.123 46.5204 196.826Z" fill="#FEFEFE" fill-opacity="0.44"/>
<path fill-rule="evenodd" clip-rule="evenodd" d="M50.5026 206.148C45.6687 199.265 41.088 192.383 36.2772 185.477C31.4893 178.618 26.8626 171.666 22.0748 164.807L9.59872 146.668C9.29948 146.208 9.02326 145.863 8.72402 145.402C8.58591 145.195 8.4478 144.988 8.28667 144.758C8.1946 144.62 8.17158 144.55 8.05649 144.412L7.80328 144.159C7.5731 144.597 7.36593 145.517 7.5731 145.886C7.8263 146.323 8.21761 146.783 8.49384 147.198C12.5911 153.205 16.8956 159.236 21.0389 165.267C23.4098 168.72 25.8037 172.173 28.2437 175.648C33.0546 182.508 37.7964 189.529 42.6073 196.365C45.0472 199.818 47.4181 203.248 49.766 206.7C50.3185 207.506 63.8763 227.164 64.1986 227.371C64.0375 226.335 64.4288 226.358 63.8073 225.507C61.8047 222.721 59.6179 219.361 57.5923 216.46C55.1754 213.031 52.8965 209.555 50.5026 206.148Z" fill="#FEFEFE" fill-opacity="0.44"/>
<path fill-rule="evenodd" clip-rule="evenodd" d="M65.948 228.775C66.2702 228.453 68.1808 227.463 68.7562 227.118C78.2629 221.616 90.6468 214.941 100.407 210.383C119.42 201.498 146.766 189.989 168.541 195.191C169.117 195.329 169.577 195.168 169.946 194.731C165.618 193.419 158.482 193.142 153.694 193.396C135.51 194.385 115.668 202.051 99.532 209.601C95.5728 211.465 91.5215 213.399 87.7235 215.401C80.7028 219.084 74.6029 222.422 67.7895 226.289C65.7408 227.463 65.8329 227.072 65.902 228.775H65.948Z" fill="#FEFEFE" fill-opacity="0.44"/>
<path fill-rule="evenodd" clip-rule="evenodd" d="M192.619 192.061C193.148 192.061 193.47 192.268 193.977 191.992L197.222 190.104C198.742 189.253 200.238 188.493 201.803 187.78C203.391 187.043 204.911 186.329 206.591 185.662C215.982 181.956 223.279 180.16 233.937 178.71C241.947 177.628 251.799 177.099 259.902 177.122C268.971 177.168 278.201 177.375 287.248 177.191C287.294 176.708 286.833 175.419 286.695 175.027C277.626 175.304 268.695 175.396 259.672 175.925C251.063 176.431 242.73 177.191 234.328 178.296C222.036 179.884 207.466 183.015 196.739 189.23C196.187 189.552 192.964 191.463 192.619 192.084V192.061Z" fill="#FEFEFE" fill-opacity="0.44"/>
<path fill-rule="evenodd" clip-rule="evenodd" d="M189.373 191.302C189.787 191.371 189.81 191.279 190.041 191.049L191.491 189.76C192.181 189.161 192.78 188.678 193.47 188.148C204.013 179.977 217.479 176.524 230.945 174.659C248.692 172.219 267.314 171.713 285.544 171.068C285.59 170.493 285.383 169.918 285.245 169.388C283.496 169.296 273.598 169.825 271.089 169.941C258.383 170.562 242.891 171.621 230.737 173.785C222.405 175.281 214.786 177.076 207.512 180C203.99 181.427 200.721 183.084 197.706 184.972C195.197 186.537 191.399 189.253 189.396 191.279L189.373 191.302Z" fill="#FEFEFE" fill-opacity="0.44"/>
<path fill-rule="evenodd" clip-rule="evenodd" d="M191.56 191.739C192.25 191.877 192.665 191.302 193.793 190.519C204.68 183.015 220.793 179.654 233.73 177.882C250.786 175.534 268.879 174.728 286.488 174.544L286.304 173.6C284.209 173.808 281.424 173.692 279.26 173.738C276.981 173.784 274.703 173.831 272.447 173.9C259.142 174.337 246.252 175.051 233.108 176.869C225.098 177.974 217.225 179.562 209.952 181.887C206.453 182.992 202.954 184.396 199.939 185.961C198.189 186.859 192.25 190.427 191.583 191.739H191.56Z" fill="#FEFEFE" fill-opacity="0.44"/>
<path fill-rule="evenodd" clip-rule="evenodd" d="M65.8789 230.733C66.4083 230.548 76.1682 224.909 77.181 224.357L88.5061 218.188C96.0792 214.09 103.882 210.338 111.985 206.678C126.21 200.256 144.832 193.604 161.176 195.031C162.971 195.192 165.158 195.514 166.907 195.906C168.541 196.274 167.782 195.906 168.449 195.791C168.288 195.56 168.634 195.721 168.035 195.537L166.677 195.261C166.078 195.146 165.48 195.054 164.858 194.962C163.523 194.755 162.257 194.617 160.899 194.525C158.091 194.34 155.237 194.34 152.451 194.548C131.482 196.021 106.391 207.484 88.2529 217.014C84.4318 219.016 80.7028 221.065 76.9968 223.067C73.8893 224.748 68.8713 227.533 65.994 229.329L65.948 230.756L65.8789 230.733Z" fill="#FEFEFE" fill-opacity="0.44"/>
<path fill-rule="evenodd" clip-rule="evenodd" d="M183.895 191.256C185.161 190.911 185 190.749 186.335 189.576C187.002 188.977 187.785 188.356 188.521 187.78C199.846 179.056 212.944 174.038 227.215 170.608C244.249 166.511 266.6 164.209 284.301 163.818C284.301 163.288 284.232 163.035 284.209 162.529C276.291 162.598 262.227 163.818 254.216 164.854C232.717 167.593 211.01 172.611 192.895 184.212C191.376 185.202 184.401 190.22 183.872 191.279L183.895 191.256Z" fill="#FEFEFE" fill-opacity="0.44"/>
<path fill-rule="evenodd" clip-rule="evenodd" d="M65.8329 232.804C66.5234 232.574 67.9506 231.607 68.6872 231.193C75.3165 227.441 81.5545 223.873 88.345 220.121C91.4525 218.417 96.7697 215.494 99.8312 214.021C103.767 212.11 107.542 210.085 111.548 208.243C123.978 202.558 137.42 196.826 151.692 195.629C156.388 195.238 161.222 195.537 165.802 196.573C166.838 196.803 166.861 196.987 167.275 196.458C146.006 191.002 117.302 204.445 99.4399 213.077C95.5498 214.965 91.8438 217.013 88.0227 218.97C85.9741 220.006 66.0401 230.893 65.8559 231.423L65.8329 232.804Z" fill="#FEFEFE" fill-opacity="0.44"/>
<path fill-rule="evenodd" clip-rule="evenodd" d="M185.345 191.118C186.473 191.21 186.197 191.072 186.818 190.543C187.163 190.266 187.532 189.944 187.877 189.645C198.65 180.184 214.302 174.706 228.297 171.552C237.021 169.596 246.114 168.33 255.298 167.363C260.063 166.857 264.92 166.465 269.708 166.166C271.434 166.051 284.117 165.545 284.531 165.36C284.531 164.417 284.485 164.371 284.186 164.302C284.071 164.279 284.025 164.279 283.91 164.279L276.912 164.601C261.03 165.406 243.282 167.271 228.113 170.885C213.704 174.315 201.205 179.01 189.649 187.527C188.844 188.126 188.153 188.678 187.417 189.277C186.818 189.76 185.759 190.589 185.368 191.095L185.345 191.118Z" fill="#FEFEFE" fill-opacity="0.44"/>
<path fill-rule="evenodd" clip-rule="evenodd" d="M186.979 191.141C187.739 191.187 187.946 190.818 188.337 190.496C191.076 188.148 192.665 186.859 195.933 184.788C205.831 178.504 217.364 174.867 229.31 172.496C245.262 169.342 261.26 168.26 277.511 167.455C278.524 167.409 284.37 167.248 284.785 167.132C284.785 166.695 284.785 166.327 284.578 165.959C282.414 165.843 279.421 166.143 277.189 166.258C261.904 166.971 243.582 168.652 229.08 171.897C215.683 174.89 201.895 179.493 191.122 187.688C190.685 188.033 187.278 190.611 186.956 191.164L186.979 191.141Z" fill="#FEFEFE" fill-opacity="0.44"/>
<path fill-rule="evenodd" clip-rule="evenodd" d="M188.245 191.209C188.936 191.279 189.074 190.887 189.488 190.496L192.527 187.987C202.954 179.769 216.765 175.718 230.047 173.439C245.561 170.769 269.178 169.204 285.13 168.905C285.038 168.398 285.015 168.191 284.9 167.662C284.186 167.546 282.184 167.731 281.355 167.754C264.39 168.467 246.528 169.595 230.024 172.818C221.668 174.452 213.934 176.639 206.729 179.631C203.207 181.104 199.801 182.877 196.785 184.764C195.358 185.662 189.258 189.851 188.245 191.186V191.209Z" fill="#FEFEFE" fill-opacity="0.44"/>
<path fill-rule="evenodd" clip-rule="evenodd" d="M48.1777 193.027C44.1495 186.766 40.2363 180.045 36.2771 173.83C35.4715 172.587 34.6889 171.252 33.8832 170.009C33.0776 168.743 32.364 167.477 31.5584 166.211L26.7245 158.615C25.7347 157.096 12.5681 137 11.7855 136.287C11.3942 136.402 11.1179 136.632 10.8647 137C11.5553 138.243 14.7779 142.985 15.8137 144.527L43.0906 185.662C43.9423 186.951 44.771 188.125 45.5766 189.391C46.7736 191.232 49.743 195.49 50.5486 196.895C50.4105 196.457 49.6509 195.352 49.3747 194.938C48.9833 194.316 48.592 193.649 48.1777 193.027Z" fill="#FEFEFE" fill-opacity="0.44"/>
<path d="M39.9913 24.4053C46.8378 14.6059 58.9178 8.68249 70.7282 10.7147C85.4485 13.2475 96.5928 27.0003 96.7607 42.5241L181.929 81.9178C188.766 75.4759 198.573 72.2225 208.072 73.8569C219.882 75.889 229.185 85.6531 232.363 97.1772L231.516 97.8371L199.201 92.0137L185.17 104.482L194.201 120.486L226.736 126.292L227.086 127.2C220.239 136.999 208.119 143.01 196.308 140.978C181.588 138.445 170.612 124.558 170.444 109.034L85.41 69.8094C78.5737 76.2513 68.4965 79.1678 58.9978 77.5335C47.1875 75.5014 38.2956 66.4585 35.1178 54.9341L34.8727 53.8768L68.0446 59.4574L81.8192 47.0836L72.9989 31.0833L40.5958 25.2196L39.9893 24.4064L39.9913 24.4053Z" fill="white" fill-opacity="0.61"/>
<path d="M42.711 25.6065C49.3529 16.0999 60.4966 10.7068 71.9541 12.6781C86.2344 15.1352 96.2416 28.2093 96.4044 43.2687L179.833 81.7531C186.464 75.5037 195.476 72.3215 204.69 73.9068C216.148 75.8782 224.859 84.6899 227.942 95.8699L227.806 95.6928L196.253 90.2591L182.027 102.793L191.24 119.351L222.796 124.774L222.979 124.655C216.337 134.161 205.193 139.554 193.736 137.583C179.455 135.126 169.448 122.052 169.285 106.992L85.8571 68.508C79.2252 74.7574 70.214 77.9396 60.9993 76.3543C49.5418 74.3829 40.8309 65.5712 37.748 54.3912L37.8832 54.5683L69.4363 60.0021L83.6619 47.4686L74.4447 30.9202L42.8916 25.4864L42.7088 25.6062H42.7088L42.711 25.6065Z" fill="white" fill-opacity="0.61"/>
<path d="M39.9913 24.4053C46.8378 14.6059 58.9178 8.68249 70.7282 10.7147C85.4485 13.2475 96.5928 27.0003 96.7607 42.5241L181.929 81.9178C188.766 75.4759 198.573 72.2225 208.072 73.8569C219.882 75.889 229.185 85.6531 232.363 97.1772L231.516 97.8371L199.201 92.0137L185.17 104.482L194.201 120.486L226.736 126.292L227.086 127.2C220.239 136.999 208.119 143.01 196.308 140.978C181.588 138.445 170.612 124.558 170.444 109.034L85.41 69.8094C78.5737 76.2513 68.4965 79.1678 58.9978 77.5335C47.1875 75.5014 38.2956 66.4585 35.1178 54.9341L34.8727 53.8768L68.0446 59.4574L81.8192 47.0836L72.9989 31.0833L40.5958 25.2196L39.9893 24.4064L39.9913 24.4053Z" fill="white" fill-opacity="0.61"/>
<path d="M42.711 25.6065C49.3529 16.0999 60.4966 10.7068 71.9541 12.6781C86.2344 15.1352 96.2416 28.2093 96.4044 43.2687L179.833 81.7531C186.464 75.5037 195.476 72.3215 204.69 73.9068C216.148 75.8782 224.859 84.6899 227.942 95.8699L227.806 95.6928L196.253 90.2591L182.027 102.793L191.24 119.351L222.796 124.774L222.979 124.655C216.337 134.161 205.193 139.554 193.736 137.583C179.455 135.126 169.448 122.052 169.285 106.992L85.8571 68.508C79.2252 74.7574 70.214 77.9396 60.9993 76.3543C49.5418 74.3829 40.8309 65.5712 37.748 54.3912L37.8832 54.5683L69.4363 60.0021L83.6619 47.4686L74.4447 30.9202L42.8916 25.4864L42.7088 25.6062H42.7088L42.711 25.6065Z" fill="white" fill-opacity="0.61"/>
<path d="M151.016 58.5875L153.718 61.4694L80.9745 126.251L78.7375 130.76L68.0247 137.834L65.0204 134.63L73.2373 124.894L78.2719 123.368L151.016 58.5872L151.016 58.5875Z" fill="white" fill-opacity="0.61"/>
<path d="M194.625 4.0625C194.625 4.0625 211.489 6.78778 213.363 24.0438L169.529 61.4125C163.02 62.7203 158.526 64.8591 155.497 67.5566C152.781 69.9749 148.833 78.5178 148.833 78.5178L133.407 62.0687C133.407 62.0687 142.292 58.5819 144.901 56.2581C147.759 53.5501 150.201 49.0894 152.064 42.8378L194.626 4.06281L194.625 4.0625Z" fill="white" fill-opacity="0.61"/>
</svg>
